<svg width="99" height="37" viewBox="0 0 99 37" fill="none" xmlns="http://www.w3.org/2000/svg">
<path d="M15.6848 28.675V14.8402C15.6848 9.97391 11.9848 8.28478 7.88261 8.28478C5.59022 8.28478 3.17717 8.80761 1.1663 9.57174L1.64891 13.4728C2.775 12.95 5.50978 12.1054 7.84239 12.1054C9.93369 12.1054 11.663 12.7891 11.663 15.0413V16.087L7.19891 16.3283C2.81522 16.5696 0 18.5402 0 22.9641C0 27.0663 2.73478 28.9565 5.95217 28.9565C7.84239 28.9565 9.89348 28.2728 11.663 26.9859L11.9446 28.675H15.6848ZM7.27935 20.0283L11.663 19.787V23.3663C10.2957 24.2109 8.44565 25.1359 6.31413 25.1359C4.94674 25.1359 4.02174 24.2511 4.02174 22.9641C4.02174 21.4359 4.90652 20.1489 7.27935 20.0283Z" fill="#0F2D5A"/>
<path d="M24.3271 28.675V12.2663C24.3271 9.65217 23.3619 8.56631 20.5467 8.56631H18.4152V12.387H19.7021C20.1445 12.387 20.3054 12.5478 20.3054 12.9902V28.675H24.3271ZM18.7771 2.85544C18.7771 4.42391 20.0641 5.71087 21.6326 5.71087C23.201 5.71087 24.488 4.42391 24.488 2.85544C24.488 1.28696 23.201 0 21.6326 0C20.0641 0 18.7771 1.28696 18.7771 2.85544Z" fill="#0F2D5A"/>
<path d="M38.8748 8.76739C37.99 8.40544 37.2259 8.28478 36.502 8.28478C34.4107 8.28478 33.1639 9.45109 32.1585 10.738L31.877 8.56631H28.1368V28.675H32.1585V15.2022C33.2042 13.4728 34.7324 12.1054 36.8237 12.1054C37.427 12.1054 38.0705 12.2663 38.7139 12.5478L38.8748 8.76739Z" fill="#0F2D5A"/>
<path d="M56.2164 28.675V14.8402C56.2164 9.97391 52.5164 8.28478 48.4142 8.28478C46.1218 8.28478 43.7088 8.80761 41.6979 9.57174L42.1805 13.4728C43.3066 12.95 46.0414 12.1054 48.374 12.1054C50.4653 12.1054 52.1946 12.7891 52.1946 15.0413V16.087L47.7305 16.3283C43.3468 16.5696 40.5316 18.5402 40.5316 22.9641C40.5316 27.0663 43.2664 28.9565 46.4838 28.9565C48.374 28.9565 50.4251 28.2728 52.1946 26.9859L52.4761 28.675H56.2164ZM47.8109 20.0283L52.1946 19.787V23.3663C50.8272 24.2109 48.9772 25.1359 46.8457 25.1359C45.4783 25.1359 44.5533 24.2511 44.5533 22.9641C44.5533 21.4359 45.4381 20.1489 47.8109 20.0283Z" fill="#0F2D5A"/>
<path d="M63.8533 26.6641C65.3413 28.1924 66.8696 28.9565 68.7598 28.9565C73.5054 28.9565 76.5217 25.6185 76.5217 19.6261V17.4141C76.5217 12.1859 73.2641 8.28478 68.5587 8.28478C66.95 8.28478 65.3413 8.84783 63.8533 10.0543L63.5717 8.56631H59.8315V36.7185H63.8533V26.6641ZM63.8533 14.1565C65.2207 12.7891 66.8294 12.1054 68.3174 12.1054C70.7707 12.1054 72.5 13.9957 72.5 17.4543V19.5457C72.5 23.3261 71.0522 25.1359 68.3576 25.1359C66.8294 25.1359 65.462 24.4924 63.8533 23.1652V14.1565Z" fill="#0F2D5A"/>
<path d="M84.9328 31.3293C84.41 32.6967 83.4046 33.1793 82.3187 33.1793C81.2328 33.1793 79.9861 32.6565 79.0209 32.013L78.6187 36.1152C79.9057 36.6783 81.2328 37 82.4796 37C85.4557 37 87.3459 35.713 88.5122 32.6967L98.0035 8.56631H93.66L87.8285 23.688L82.4394 8.56631H78.0557L85.898 28.7957L84.9328 31.3293Z" fill="#0F2D5A"/>
</svg>
